<svg xmlns="http://www.w3.org/2000/svg" width="17" height="17" viewBox="0 0 17 17">
  <defs>
    <style>
      .cls-1 {
        fill: #baa0d7;
        fill-rule: evenodd;
      }
    </style>
  </defs>
  <path id="icon_close_" data-name="icon close " class="cls-1" d="M1514.8,123.2a0.684,0.684,0,0,0-.97,0l-15.63,15.627a0.687,0.687,0,0,0,.49,1.172,0.675,0.675,0,0,0,.48-0.2l15.63-15.627A0.683,0.683,0,0,0,1514.8,123.2Zm0,15.627L1499.17,123.2a0.686,0.686,0,1,0-.97.971l15.63,15.627a0.675,0.675,0,0,0,.48.2,0.7,0.7,0,0,0,.49-0.2A0.683,0.683,0,0,0,1514.8,138.828Z" transform="translate(-1498 -123)"/>
</svg>
