<svg xmlns="http://www.w3.org/2000/svg" xmlns:xlink="http://www.w3.org/1999/xlink" width="37" height="36" viewBox="0 0 37 36">
  <defs>
    <style>
      .cls-1 {
        fill: #d175a7;
        fill-rule: evenodd;
        filter: url(#filter);
      }
    </style>
    <filter id="filter" x="1101" y="15" width="37" height="36" filterUnits="userSpaceOnUse">
      <feOffset result="offset" dx="2" dy="3.464" in="SourceAlpha"/>
      <feGaussianBlur result="blur" stdDeviation="2.449"/>
      <feFlood result="flood" flood-color="#efcade" flood-opacity="0.6"/>
      <feComposite result="composite" operator="in" in2="blur"/>
      <feBlend result="blend" in="SourceGraphic"/>
    </filter>
  </defs>
  <path id="ico_balance" data-name="ico balance" class="cls-1" d="M1118.56,19h1.59c0.07,0.009.14,0.024,0.21,0.027a15.571,15.571,0,0,1,3.41.521,8.348,8.348,0,0,1,2.92,1.35,3.309,3.309,0,0,1,1.2,1.569c0.04,0.142.07,0.288,0.11,0.433v0.48a0.35,0.35,0,0,0-.02.1c0,0.735-.01,1.47,0,2.2a1.684,1.684,0,0,1-.31,1.017,4.043,4.043,0,0,1-1.42,1.228A10.575,10.575,0,0,1,1123.43,29a0.157,0.157,0,0,0-.14.183q0.015,0.795,0,1.59a0.229,0.229,0,0,0,.14.236,4.575,4.575,0,0,1,1.43,1.221,2.53,2.53,0,0,1,.49,1.687c-0.04.733-.02,1.469,0,2.2a1.97,1.97,0,0,1-.52,1.369,5.023,5.023,0,0,1-1.57,1.149,13.666,13.666,0,0,1-4.73,1.267c-0.35.038-.71,0.062-1.07,0.092h-1.53a0.979,0.979,0,0,0-.1-0.019c-0.5-.044-1.01-0.073-1.51-0.132a13.488,13.488,0,0,1-3.52-.878,6.1,6.1,0,0,1-2.05-1.273,2.207,2.207,0,0,1-.71-1.677c0.03-.774.01-1.55,0.01-2.325a0.6,0.6,0,0,1,0-.134c0.06-.112-0.02-0.139-0.09-0.189-0.39-.263-0.79-0.511-1.16-0.807a2.338,2.338,0,0,1-.8-1.327V28.3c0.01-.034.03-0.067,0.04-0.1a2.593,2.593,0,0,1,.45-1.132A4.629,4.629,0,0,1,1108,25.76a9.8,9.8,0,0,1,2.54-.974,0.165,0.165,0,0,0,.15-0.191c-0.01-.425-0.01-0.85-0.01-1.275a2.645,2.645,0,0,1,.64-1.755,5.252,5.252,0,0,1,1.9-1.395,13.289,13.289,0,0,1,4.55-1.109C1118.03,19.04,1118.3,19.021,1118.56,19Zm0.9,1.29a17.394,17.394,0,0,0-2.79.211,10.491,10.491,0,0,0-3.06.931,3.565,3.565,0,0,0-1.33,1.026,1.077,1.077,0,0,0-.02,1.4,2.163,2.163,0,0,0,.32.36,5.226,5.226,0,0,0,1.71.993,13.066,13.066,0,0,0,3.81.79,16.339,16.339,0,0,0,4.85-.345,8.319,8.319,0,0,0,2.62-1.024,2.861,2.861,0,0,0,.89-0.81,1.064,1.064,0,0,0,.01-1.289,2.822,2.822,0,0,0-.33-0.389,5.6,5.6,0,0,0-1.98-1.1A14.408,14.408,0,0,0,1119.46,20.29Zm-8.73,5.792a7.511,7.511,0,0,0-2.57,1.133,3.209,3.209,0,0,0-.59.581,1.022,1.022,0,0,0-.03,1.307,2.934,2.934,0,0,0,.48.519,6.391,6.391,0,0,0,2.25,1.114,14.426,14.426,0,0,0,3.97.6,15.422,15.422,0,0,0,4.29-.456,7.556,7.556,0,0,0,2.51-1.092c0.17-.122.32-0.267,0.48-0.4a0.134,0.134,0,0,0-.09-0.03c-0.6.041-1.2,0.1-1.8,0.119a17.327,17.327,0,0,1-3.87-.338A11.091,11.091,0,0,1,1112.51,28,3.424,3.424,0,0,1,1110.73,26.082Zm-1.26,7.947a1.689,1.689,0,0,0,.49.7,5.563,5.563,0,0,0,1.9,1.075,12.717,12.717,0,0,0,3.35.7,16.565,16.565,0,0,0,5.02-.307,8.837,8.837,0,0,0,2.6-.974,3.085,3.085,0,0,0,1.01-.9,1.011,1.011,0,0,0,.08-1.105,2.934,2.934,0,0,0-1.06-1.007c-0.2.181-.37,0.359-0.56,0.515a7.17,7.17,0,0,1-2.16,1.158,16.456,16.456,0,0,1-6.3.883,16.777,16.777,0,0,1-3.11-.4C1110.32,34.262,1109.91,34.144,1109.47,34.029Zm-2.14-3.27a0.854,0.854,0,0,0,.35.863,4.926,4.926,0,0,0,1.53.907,13.419,13.419,0,0,0,4.13.909,16.024,16.024,0,0,0,5.11-.4,8.66,8.66,0,0,0,2.77-1.137,4.57,4.57,0,0,0,.64-0.568,0.638,0.638,0,0,0,.11-0.574,7.306,7.306,0,0,1-1.55.868,13.586,13.586,0,0,1-4.12.935,17.993,17.993,0,0,1-5.49-.336,9.219,9.219,0,0,1-3.42-1.443A0.168,0.168,0,0,0,1107.33,30.759Zm2.05,5.211a0.867,0.867,0,0,0,.34.871,5.341,5.341,0,0,0,1.69.97,14.217,14.217,0,0,0,4.73.888,15.712,15.712,0,0,0,4.1-.379,9.6,9.6,0,0,0,2.87-1.1,2.666,2.666,0,0,0,.79-0.654,0.68,0.68,0,0,0,.11-0.589,8.3,8.3,0,0,1-2.65,1.257,16.593,16.593,0,0,1-4.9.613,16.851,16.851,0,0,1-3.73-.434,9.429,9.429,0,0,1-3.04-1.238C1109.59,36.115,1109.49,36.045,1109.38,35.97Zm2.64-10.525a0.714,0.714,0,0,0,.17.694,4.44,4.44,0,0,0,.51.452,6.286,6.286,0,0,0,1.55.782,14.2,14.2,0,0,0,4.09.788,15.811,15.811,0,0,0,4.84-.432,8.671,8.671,0,0,0,2.76-1.145,4.889,4.889,0,0,0,.59-0.517,0.6,0.6,0,0,0,.12-0.554c-0.44.24-.86,0.505-1.31,0.709a14.076,14.076,0,0,1-5.41,1.11,18.263,18.263,0,0,1-2.99-.142,13.128,13.128,0,0,1-3.28-.829A7.236,7.236,0,0,1,1112.02,25.445Z" transform="translate(-1101 -15)"/>
</svg>
