<svg xmlns="http://www.w3.org/2000/svg" width="22" height="19" viewBox="0 0 22 19">
  <defs>
    <style>
      .cls-1 {
        fill: #d0b4ed;
        fill-rule: evenodd;
      }
    </style>
  </defs>
  <path id="icon_desktop" data-name="icon desktop" class="cls-1" d="M638.9,21.992H621.1a2.053,2.053,0,0,0-2.1,2v11.1a2.05,2.05,0,0,0,2.1,1.99H626.6v2.659H625.61a0.632,0.632,0,1,0,0,1.263h9.028a0.632,0.632,0,1,0,0-1.263h-1.25V37.078H638.9a2.051,2.051,0,0,0,2.1-1.99v-11.1A2.054,2.054,0,0,0,638.9,21.992Zm-6.829,15.085v2.659h-4.144V37.078h4.144Zm7.611-2.615v0.626a0.757,0.757,0,0,1-.782.727H621.1a0.757,0.757,0,0,1-.782-0.727V34.462h19.366Zm0-10.473V33.2H620.313V23.994a0.768,0.768,0,0,1,.781-0.738h17.8A0.768,0.768,0,0,1,639.679,23.989Z" transform="translate(-619 -22)"/>
</svg>
