<svg xmlns="http://www.w3.org/2000/svg" width="18" height="15" viewBox="0 0 18 15">
  <defs>
    <style>
      .cls-1 {
        fill: #c1bacc;
        fill-rule: evenodd;
      }
    </style>
  </defs>
  <path id="icon_email" data-name="icon email" class="cls-1" d="M1345.48,19.915L1341,24.207l-4.48-4.291a0.585,0.585,0,0,0-.88.061,0.742,0.742,0,0,0,.06.968l4.89,4.691a0.576,0.576,0,0,0,.82,0l4.89-4.692a0.742,0.742,0,0,0,.06-0.968A0.585,0.585,0,0,0,1345.48,19.915ZM1348.13,16h-14.26a1.974,1.974,0,0,0-1.87,2.058V28.942A1.974,1.974,0,0,0,1333.87,31h14.26a1.974,1.974,0,0,0,1.87-2.058V18.058A1.974,1.974,0,0,0,1348.13,16Zm0.63,12.942a0.659,0.659,0,0,1-.63.686h-14.26a0.659,0.659,0,0,1-.63-0.686V18.058a0.659,0.659,0,0,1,.63-0.686h14.26a0.659,0.659,0,0,1,.63.686V28.942Z" transform="translate(-1332 -16)"/>
</svg>
