<svg xmlns="http://www.w3.org/2000/svg" width="11" height="19" viewBox="0 0 11 19">
  <defs>
    <style>
      .cls-1 {
        fill: #c6a5e7;
        fill-rule: evenodd;
      }
    </style>
  </defs>
  <path id="icon_mobile" data-name="icon mobile" class="cls-1" d="M846.591,22h-8.184A1.414,1.414,0,0,0,837,23.417V39.583A1.414,1.414,0,0,0,838.407,41h8.184A1.414,1.414,0,0,0,848,39.583V23.417A1.414,1.414,0,0,0,846.591,22Zm-8.375,15.936h3.122a1.156,1.156,0,0,0-.364.842v0.148a1.156,1.156,0,0,0,.364.842h-2.931a0.188,0.188,0,0,1-.191-0.185V37.936Zm5.808,0.99V38.778a1.156,1.156,0,0,0-.364-0.842h3.123v1.647a0.189,0.189,0,0,1-.192.185H843.66A1.156,1.156,0,0,0,844.024,38.926Zm-5.617-15.694h8.184a0.189,0.189,0,0,1,.192.185V36.7h-8.567V23.417A0.188,0.188,0,0,1,838.407,23.232Z" transform="translate(-837 -22)"/>
</svg>
