<svg xmlns="http://www.w3.org/2000/svg" xmlns:xlink="http://www.w3.org/1999/xlink" width="42" height="41.031" viewBox="0 0 42 41.031">
  <defs>
    <style>
      .cls-1 {
        fill: #997199;
        fill-rule: evenodd;
        filter: url(#filter);
      }
    </style>
    <filter id="filter" x="1406" y="21.969" width="42" height="41.031" filterUnits="userSpaceOnUse">
      <feOffset result="offset" dx="5" dy="8.66" in="SourceAlpha"/>
      <feGaussianBlur result="blur" stdDeviation="3.162"/>
      <feFlood result="flood" flood-color="#20041c" flood-opacity="0.5"/>
      <feComposite result="composite" operator="in" in2="blur"/>
      <feBlend result="blend" in="SourceGraphic"/>
    </filter>
  </defs>
  <path id="icon_profil" data-name="icon profil" class="cls-1" d="M1431.34,30.523l-1.4-.237a8.077,8.077,0,0,0-.53-1.283l0.82-1.155a1.528,1.528,0,0,0-.16-1.976l-1.35-1.347a1.554,1.554,0,0,0-1.97-.166l-1.16.826a8.506,8.506,0,0,0-1.33-.551l-0.24-1.381a1.525,1.525,0,0,0-1.51-1.28h-1.9a1.543,1.543,0,0,0-1.52,1.28l-0.24,1.419a9.282,9.282,0,0,0-1.28.54l-1.14-.824a1.569,1.569,0,0,0-1.98.165L1413.1,25.9a1.528,1.528,0,0,0-.16,1.976l0.83,1.173a9.243,9.243,0,0,0-.52,1.288l-1.38.233a1.532,1.532,0,0,0-1.28,1.514v1.9a1.532,1.532,0,0,0,1.28,1.514l1.42,0.242a7.827,7.827,0,0,0,.54,1.279l-0.82,1.14a1.528,1.528,0,0,0,.16,1.976l1.35,1.347a1.557,1.557,0,0,0,1.97.166l1.17-.835a8.615,8.615,0,0,0,1.24.508l0.23,1.4a1.533,1.533,0,0,0,1.51,1.28h1.91a1.525,1.525,0,0,0,1.51-1.28l0.24-1.4a8.928,8.928,0,0,0,1.28-.531l1.16,0.824a1.555,1.555,0,0,0,1.97-.165l1.35-1.347a1.541,1.541,0,0,0,.17-1.976l-0.83-1.158a7.99,7.99,0,0,0,.53-1.284l1.4-.233a1.532,1.532,0,0,0,1.28-1.514v-1.9A1.509,1.509,0,0,0,1431.34,30.523Zm-2.81,4.25a7.063,7.063,0,0,1-.77,1.844,0.819,0.819,0,0,0,.04.877l1.08,1.521-1.26,1.255-1.51-1.077a0.8,0.8,0,0,0-.88-0.036,7.015,7.015,0,0,1-1.84.764,0.809,0.809,0,0,0-.6.647l-0.31,1.834h-1.77l-0.3-1.835a0.808,0.808,0,0,0-.59-0.645,7.37,7.37,0,0,1-1.81-.739,0.819,0.819,0,0,0-.87.041l-1.52,1.1-1.26-1.266,1.07-1.507a0.809,0.809,0,0,0,.04-0.883,7.068,7.068,0,0,1-.78-1.84,0.8,0.8,0,0,0-.64-0.59l-1.85-.314V32.149l1.82-.305a0.811,0.811,0,0,0,.65-0.6,7.274,7.274,0,0,1,.75-1.847,0.794,0.794,0,0,0-.04-0.874L1414.3,27l1.25-1.254,1.51,1.073a0.811,0.811,0,0,0,.88.036,6.942,6.942,0,0,1,1.84-.775,0.834,0.834,0,0,0,.59-0.645l0.31-1.847h1.77l0.31,1.82a0.8,0.8,0,0,0,.6.651,7.084,7.084,0,0,1,1.88.774,0.812,0.812,0,0,0,.88-0.037l1.51-1.082,1.25,1.254-1.08,1.514a0.8,0.8,0,0,0-.03.881,6.973,6.973,0,0,1,.76,1.84,0.793,0.793,0,0,0,.65.595l1.83,0.31v1.771l-1.84.305A0.808,0.808,0,0,0,1428.53,34.773Zm-6.93-6.653a4.867,4.867,0,1,0,4.87,4.867A4.869,4.869,0,0,0,1421.6,28.12Zm3.25,4.867a3.25,3.25,0,1,1-3.25-3.252A3.255,3.255,0,0,1,1424.85,32.987Z" transform="translate(-1406 -21.969)"/>
</svg>
