<svg xmlns="http://www.w3.org/2000/svg" width="16" height="16" viewBox="0 0 16 16">
  <defs>
    <style>
      .cls-1 {
        fill: #c1bacc;
        fill-rule: evenodd;
      }
    </style>
  </defs>
  <path id="icon_skype_" data-name="icon skype " class="cls-1" d="M1385.29,34.217a7.385,7.385,0,0,0-8.51-8.5,4.347,4.347,0,0,0-2.39-.713,4.389,4.389,0,0,0-3.68,6.783,7.4,7.4,0,0,0,8.51,8.5,4.347,4.347,0,0,0,2.39.713A4.389,4.389,0,0,0,1385.29,34.217Zm-13.15-3.087a2.844,2.844,0,0,1,3.99-3.992,0.774,0.774,0,0,0,.64.145,5.861,5.861,0,0,1,6.95,6.95,0.76,0.76,0,0,0,.14.635,2.844,2.844,0,0,1-3.99,3.992,0.773,0.773,0,0,0-.64-0.145,5.859,5.859,0,0,1-6.95-6.95A0.76,0.76,0,0,0,1372.14,31.13Zm5.25,2.487,0.1,0.029c0.08,0.023.15,0.047,0.23,0.071,0.86,0.258,1.92.578,1.92,1.09a1.492,1.492,0,0,1-1.64,1.037,1.749,1.749,0,0,1-1.58-.763,0.769,0.769,0,1,0-1.39.657,3.209,3.209,0,0,0,2.97,1.647,3.517,3.517,0,0,0,2.28-.774,2.391,2.391,0,0,0,.9-1.8c0-1.673-1.94-2.239-2.57-2.425l-0.1-.029c-0.08-.023-0.15-0.047-0.23-0.071-0.86-.258-1.92-0.578-1.92-1.09a1.492,1.492,0,0,1,1.64-1.037,1.749,1.749,0,0,1,1.58.763,0.741,0.741,0,0,0,.43.4,0.772,0.772,0,0,0,.96-1.053,3.209,3.209,0,0,0-2.97-1.647,3.517,3.517,0,0,0-2.28.774,2.391,2.391,0,0,0-.9,1.8C1374.82,32.865,1376.76,33.432,1377.39,33.618Z" transform="translate(-1370 -25)"/>
</svg>
