<svg xmlns="http://www.w3.org/2000/svg" width="18" height="15" viewBox="0 0 18 15">
  <defs>
    <style>
      .cls-1 {
        fill: #c1bacc;
        fill-rule: evenodd;
      }
    </style>
  </defs>
  <path id="icon_telegram_" data-name="icon telegram " class="cls-1" d="M1315.22,26.037l-16.86,6.273a0.539,0.539,0,0,0,0,1.017l3.29,1.219c0.38,0.9,2.08,4.969,2.11,5.03a0.585,0.585,0,0,0,.93.174l2.55-2.43,4.69,3.562a0.576,0.576,0,0,0,.91-0.312l3.15-13.909A0.567,0.567,0,0,0,1315.22,26.037Zm-6.02,3.411-7.16,4.07-1.89-.7Zm1.69,0.31-5.85,5.091a0.525,0.525,0,0,0-.16.262v0l-0.7,2.52-1.38-3.279Zm-5.13,6.44,0.57,0.438-0.95.909Zm6.16,3.283-5.61-4.257,8.18-7.126Z" transform="translate(-1298 -26)"/>
</svg>
