<svg xmlns="http://www.w3.org/2000/svg" xmlns:xlink="http://www.w3.org/1999/xlink" width="34" height="37" viewBox="0 0 34 37">
  <defs>
    <style>
      .cls-1 {
        fill: #966bc5;
        fill-rule: evenodd;
        filter: url(#filter);
      }
    </style>
    <filter id="filter" x="919" y="16" width="34" height="37" filterUnits="userSpaceOnUse">
      <feOffset result="offset" dx="2" dy="3.464" in="SourceAlpha"/>
      <feGaussianBlur result="blur" stdDeviation="2.449"/>
      <feFlood result="flood" flood-color="#d1bee4" flood-opacity="0.6"/>
      <feComposite result="composite" operator="in" in2="blur"/>
      <feBlend result="blend" in="SourceGraphic"/>
    </filter>
  </defs>
  <path id="icon_price" data-name="icon price" class="cls-1" d="M942.135,27.768l-7.638-3.8a1.6,1.6,0,0,0-2,0l-1.3,1.1a3.569,3.569,0,0,1-.054-0.619,3.316,3.316,0,0,1,.743-2.145,2.107,2.107,0,0,1,1.61-.811c1.3,0,2.352,1.326,2.352,2.956a0.774,0.774,0,0,0,1.548,0A4.211,4.211,0,0,0,933.5,20a3.654,3.654,0,0,0-2.81,1.362,4.793,4.793,0,0,0-1.09,3.094,4.983,4.983,0,0,0,.3,1.724l-5.037,1.588A2.42,2.42,0,0,0,924,29.607v9.515A2.93,2.93,0,0,0,926.971,42h10.943C939.552,42,943,40.71,943,39.122V29.607A2.416,2.416,0,0,0,942.135,27.768Zm-7.87.394a0.763,0.763,0,0,0-.774-0.75,2.107,2.107,0,0,1-1.607-.807l-0.062-.077,1.652-1.43,7.637,3.795a0.935,0.935,0,0,1,.333.714v9.515l0,0.085c-0.046.721-2.776,1.294-3.532,1.294H926.966a1.4,1.4,0,0,1-1.423-1.379V29.607a0.937,0.937,0,0,1,.332-0.714l4.784-1.373,0.023,0.03a3.653,3.653,0,0,0,2.809,1.362A0.763,0.763,0,0,0,934.265,28.162Zm-1.543,2.222V30.86a2.025,2.025,0,0,0,.172,4.047h1.2a0.527,0.527,0,1,1,0,1.053h-2.16a0.75,0.75,0,1,0,0,1.5h0.785v0.483a0.774,0.774,0,0,0,1.547,0V37.453a2.025,2.025,0,0,0-.172-4.046h-1.2a0.527,0.527,0,1,1,0-1.053h2.119a0.751,0.751,0,1,0,0-1.5h-0.744V30.384A0.774,0.774,0,0,0,932.722,30.384Z" transform="translate(-919 -16)"/>
</svg>
