<svg xmlns="http://www.w3.org/2000/svg" width="20" height="16" viewBox="0 0 20 16">
  <defs>
    <style>
      .cls-1 {
        fill: #b6166d;
        fill-rule: evenodd;
      }
    </style>
  </defs>
  <path id="icon_email_" data-name="icon email " class="cls-1" d="M941.975,324.176L937,328.754l-4.975-4.578a0.666,0.666,0,0,0-.976.065,0.762,0.762,0,0,0,.062,1.033l5.433,5a0.662,0.662,0,0,0,.914,0l5.431-5a0.763,0.763,0,0,0,.062-1.033A0.666,0.666,0,0,0,941.975,324.176Zm2.95-4.176H929.074A2.139,2.139,0,0,0,927,322.2v11.61A2.139,2.139,0,0,0,929.074,336h15.851A2.14,2.14,0,0,0,947,333.805V322.2A2.14,2.14,0,0,0,944.925,320Zm0.692,13.805a0.714,0.714,0,0,1-.692.732H929.074a0.714,0.714,0,0,1-.692-0.732V322.2a0.714,0.714,0,0,1,.692-0.732h15.851a0.713,0.713,0,0,1,.692.732v11.61Z" transform="translate(-927 -320)"/>
</svg>
